<?xml version="1.0" encoding="UTF-8" standalone="no"?>
<!DOCTYPE svg PUBLIC "-//W3C//DTD SVG 1.1//EN"
  "http://www.w3.org/Graphics/SVG/1.1/DTD/svg11.dtd">
<svg width="600px" height="599px" version="1.1"     xmlns="http://www.w3.org/2000/svg">
    <path fill="none" stroke="black" stroke-width="4px" d="
        M 246 202
        L 281 176
        L 293 140
        L 308 105
        L 317 66
        L 271 58
        L 234 73
        L 263 103
        L 242 137
        L 198 142
        L 196 101
        L 187 64
        L 159 97
        L 153 134
        L 110 140
        L 113 95
        L 110 57
        L 52 50
        L 67 86
        L 51 121
        L 72 153
        L 50 184
        L 69 220
        L 56 258
        L 115 243
        L 124 197
        L 161 176
        L 196 204
        L 157 214
        L 160 252
        L 198 258
        L 201 315
        L 167 295
        L 123 299
        L 78 297
        L 51 338
        L 82 363
        L 116 347
        L 150 364
        L 125 398
        L 60 408
        L 72 444
        L 50 510
        L 50 549
        L 94 535
        L 139 540
        L 178 543
        L 157 501
        L 114 482
        L 122 437
        L 159 452
        L 173 411
        L 201 377
        L 243 404
        L 281 386
        L 258 349
        L 299 343
        L 318 308
        L 343 340
        L 365 301
        L 408 313
        L 437 343
        L 384 358
        L 351 379
        L 370 417
        L 415 418
        L 442 385
        L 480 366
        L 501 402
        L 469 423
        L 469 471
        L 419 485
        L 379 470
        L 339 472
        L 328 434
        L 289 452
        L 250 468
        L 216 446
        L 206 488
        L 245 539
        L 280 525
        L 323 507
        L 318 548
        L 358 538
        L 384 511
        L 418 548
        L 454 527
        L 492 516
        L 537 532
        L 534 494
        L 530 442
        L 549 393
        L 518 365
        L 498 319
        L 538 313
        L 550 275
        L 524 243
        L 489 254
        L 463 283
        L 425 277
        L 393 259
        L 390 208
        L 428 186
        L 446 222
        L 465 179
        L 495 202
        L 531 189
        L 503 164
        L 541 136
        L 546 94
        L 542 57
        L 503 85
        L 489 124
        L 455 93
        L 461 51
        L 407 65
        L 365 52
        L 357 89
        L 389 111
        L 423 144
        L 378 159
        L 345 143
        L 320 177
        L 338 212
        L 339 252
        L 301 243
        L 292 280
        L 266 311
        L 250 277
        L 260 240
        Z
    "/>
</svg>
